<svg xmlns="http://www.w3.org/2000/svg" class="editor-view__logo-preview" data-v-04588dbe="" data-v-0a059b40="" width="282.4619140625" height="61.87000274658203" viewBox="0 0 282.4619140625 61.87000274658203"><svg id="mark" viewBox="0 0 100 100" width="39" height="39" x="0" y="11.435001373291016" data-v-04588dbe="" style="fill: rgb(57, 125, 227);"><rect x="0" y="0" width="100%" height="100%" fill="none" data-v-04588dbe=""></rect><g data-v-04588dbe=""><path xmlns="http://www.w3.org/2000/svg" d="M80.644,87.982l16.592-41.483c0.054-0.128,0.088-0.26,0.108-0.394c0.006-0.039,0.007-0.077,0.011-0.116  c0.007-0.087,0.008-0.174,0.002-0.26c-0.003-0.046-0.007-0.091-0.014-0.137c-0.014-0.089-0.036-0.176-0.063-0.262  c-0.012-0.034-0.019-0.069-0.031-0.103c-0.047-0.118-0.106-0.229-0.178-0.335c-0.004-0.006-0.006-0.012-0.01-0.018L67.999,3.358  c-0.01-0.013-0.003-0.026-0.013-0.04L68,3.315V4c0,0-0.033,0-0.037,0c-0.403-1-1.094-1.124-1.752-0.976  c0,0.004-0.004-0.012-0.007-0.012C66.201,3.016,66.194,3,66.194,3H66.19h-0.003h-0.003h-0.004h-0.003c0,0-0.004,0-0.007,0  s-0.003-0.151-0.007-0.151L20.495,15.227c-0.025,0.007-0.046-0.019-0.071-0.011c-0.087,0.028-0.172,0.041-0.253,0.083  c-0.054,0.027-0.102,0.053-0.152,0.085c-0.051,0.033-0.101,0.061-0.147,0.099c-0.044,0.036-0.084,0.073-0.124,0.113  c-0.048,0.048-0.093,0.098-0.136,0.152c-0.03,0.039-0.059,0.076-0.085,0.117c-0.046,0.07-0.084,0.145-0.12,0.223  c-0.011,0.023-0.027,0.042-0.036,0.066L2.911,57.664C2.891,57.715,3,57.768,3,57.82v0.002c0,0.186,0,0.375,0,0.562  c0,0.004,0,0.004,0,0.008c0,0,0,0,0,0.002c0,0,0,0,0,0.004v0.004v0.002c0,0.074-0.002,0.15,0.012,0.223  C3.015,58.631,3,58.631,3,58.633c0,0.004,0,0.004,0,0.008c0,0,0,0,0,0.002c0,0,0,0,0,0.004v0.004c0,0,0,0,0,0.002v0.004  c0,0.191-0.046,0.377,0.06,0.545c0-0.002-0.03,0.004-0.03,0.004c0,0.004-0.03,0.004-0.03,0.004c0,0.002,0,0.002,0,0.002  l-0.045,0.004c0.03,0.047,0.036,0.09,0.068,0.133l29.049,37.359c0.002,0.004,0,0.006,0.002,0.01c0.002,0.002,0,0.004,0.002,0.008  c0.006,0.008,0.014,0.014,0.021,0.021c0.024,0.029,0.052,0.051,0.078,0.078c0.027,0.029,0.053,0.057,0.082,0.082  c0.03,0.027,0.055,0.062,0.086,0.088c0.026,0.02,0.057,0.033,0.084,0.053c0.04,0.027,0.081,0.053,0.123,0.076  c0.005,0.004,0.01,0.008,0.016,0.01c0.087,0.051,0.176,0.09,0.269,0.123c0.042,0.014,0.082,0.031,0.125,0.043  c0.021,0.006,0.041,0.018,0.062,0.021c0.123,0.027,0.249,0.043,0.375,0.043c0.099,0,0.202-0.012,0.304-0.027l45.669-8.303  c0.057-0.01,0.108-0.021,0.163-0.037C79.547,88.992,79.562,89,79.575,89c0.004,0,0.004,0,0.004,0c0.021,0,0.039-0.027,0.06-0.035  c0.041-0.014,0.08-0.034,0.12-0.052c0.021-0.01,0.044-0.019,0.064-0.03c0.017-0.01,0.026-0.015,0.033-0.017  c0.014-0.008,0.023-0.021,0.037-0.028c0.14-0.078,0.269-0.174,0.38-0.285c0.014-0.016,0.024-0.034,0.038-0.048  c0.109-0.119,0.201-0.252,0.271-0.398c0.006-0.01,0.016-0.018,0.021-0.029c0.004-0.008,0.008-0.017,0.011-0.026  c0.002-0.004,0.003-0.006,0.005-0.01C80.627,88.021,80.635,88.002,80.644,87.982z M77.611,84.461L48.805,66.453l32.407-25.202  L77.611,84.461z M46.817,63.709L35.863,23.542l43.818,14.608L46.817,63.709z M84.668,40.542l8.926,5.952l-11.902,29.75  L84.668,40.542z M89.128,39.446L84.53,36.38l-6.129-12.257L89.128,39.446z M79.876,34.645L37.807,20.622L65.854,6.599L79.876,34.645  z M33.268,19.107l-6.485-2.162l23.781-6.487L33.268,19.107z M21.92,18.895l8.67,2.891L10.357,47.798L21.92,18.895z M32.652,24.649  l10.845,39.757L7.351,57.178L32.652,24.649z M43.472,67.857L32.969,92.363L8.462,60.855L43.472,67.857z M46.631,69.09l27.826,17.393  l-38.263,6.959L46.631,69.09z"></path></g></svg><svg id="name" viewBox="0 0 227.4619140625 34.94921875" width="227.4619140625" height="34.94921875" x="55" y="4" data-v-04588dbe="" style="fill: rgb(48, 130, 240);"><rect x="0" y="0" width="100%" height="100%" fill="none" data-v-04588dbe=""></rect><g data-v-04588dbe=""><path xmlns="http://www.w3.org/2000/svg" d="M19.68 15.05L19.68 20.33L6.74 20.33L6.74 29.09L21.92 29.09L21.92 34.50L0 34.50L0 1.80L21.88 1.80L21.88 7.25L6.74 7.25L6.74 15.05L19.68 15.05ZM32.30 0L32.30 34.50L25.79 34.50L25.79 0L32.30 0ZM48.83 34.95L48.83 34.95Q43.48 34.95 40.13 31.67Q36.77 28.39 36.77 22.93L36.77 22.93L36.77 22.30Q36.77 18.64 38.18 15.76Q39.60 12.87 42.19 11.31Q44.79 9.75 48.11 9.75L48.11 9.75Q53.10 9.75 55.96 12.89Q58.83 16.04 58.83 21.81L58.83 21.81L58.83 24.46L43.35 24.46Q43.66 26.84 45.25 28.28Q46.83 29.72 49.26 29.72L49.26 29.72Q53.01 29.72 55.12 27.00L55.12 27.00L58.31 30.57Q56.85 32.64 54.36 33.79Q51.86 34.95 48.83 34.95ZM48.09 15.00L48.09 15.00Q46.16 15.00 44.96 16.31Q43.75 17.61 43.42 20.04L43.42 20.04L52.45 20.04L52.45 19.52Q52.40 17.36 51.28 16.18Q50.16 15.00 48.09 15.00ZM63.79 4.22L70.28 4.22L70.28 10.20L74.44 10.20L74.44 14.96L70.28 14.96L70.28 27.09Q70.28 28.44 70.80 29.02Q71.31 29.60 72.77 29.60L72.77 29.60Q73.85 29.60 74.68 29.45L74.68 29.45L74.68 34.37Q72.77 34.95 70.75 34.95L70.75 34.95Q63.92 34.95 63.79 28.05L63.79 28.05L63.79 14.96L60.24 14.96L60.24 10.20L63.79 10.20L63.79 4.22ZM91.80 10.04L91.71 16.28Q90.38 16.10 89.37 16.10L89.37 16.10Q85.69 16.10 84.54 18.60L84.54 18.60L84.54 34.50L78.05 34.50L78.05 10.20L84.18 10.20L84.36 13.09Q86.32 9.75 89.78 9.75L89.78 9.75Q90.85 9.75 91.80 10.04L91.80 10.04ZM93.01 22.42L93.01 22.12Q93.01 18.51 94.40 15.68Q95.80 12.85 98.41 11.30Q101.03 9.75 104.49 9.75L104.49 9.75Q109.41 9.75 112.52 12.76Q115.63 15.77 115.99 20.93L115.99 20.93L116.03 22.60Q116.03 28.19 112.91 31.57Q109.79 34.95 104.53 34.95Q99.28 34.95 96.14 31.58Q93.01 28.21 93.01 22.42L93.01 22.42ZM99.50 22.60L99.50 22.60Q99.50 26.05 100.80 27.89Q102.11 29.72 104.53 29.72L104.53 29.72Q106.89 29.72 108.22 27.91Q109.54 26.10 109.54 22.12L109.54 22.12Q109.54 18.73 108.22 16.87Q106.89 15.00 104.49 15.00L104.49 15.00Q102.11 15.00 100.80 16.86Q99.50 18.71 99.50 22.60ZM119.90 10.20L126.01 10.20L126.21 13.00Q128.81 9.75 133.19 9.75L133.19 9.75Q137.06 9.75 138.94 12.02Q140.83 14.29 140.88 18.80L140.88 18.80L140.88 34.50L134.38 34.50L134.38 18.96Q134.38 16.89 133.49 15.96Q132.59 15.03 130.50 15.03L130.50 15.03Q127.76 15.03 126.39 17.36L126.39 17.36L126.39 34.50L119.90 34.50L119.90 10.20ZM152.64 10.20L152.64 34.50L146.13 34.50L146.13 10.20L152.64 10.20ZM145.75 3.91L145.75 3.91Q145.75 2.45 146.73 1.50Q147.70 0.56 149.39 0.56L149.39 0.56Q151.05 0.56 152.04 1.50Q153.03 2.45 153.03 3.91L153.03 3.91Q153.03 5.39 152.03 6.33Q151.03 7.28 149.39 7.28Q147.75 7.28 146.75 6.33Q145.75 5.39 145.75 3.91ZM168.10 29.72L168.10 29.72Q169.89 29.72 171.02 28.73Q172.14 27.74 172.19 26.10L172.19 26.10L178.27 26.10Q178.25 28.57 176.92 30.63Q175.60 32.68 173.30 33.81Q171.00 34.95 168.21 34.95L168.21 34.95Q163.00 34.95 159.99 31.64Q156.98 28.32 156.98 22.48L156.98 22.48L156.98 22.06Q156.98 16.44 159.97 13.09Q162.95 9.75 168.17 9.75L168.17 9.75Q172.72 9.75 175.48 12.34Q178.23 14.94 178.27 19.25L178.27 19.25L172.19 19.25Q172.14 17.36 171.02 16.18Q169.89 15.00 168.05 15.00L168.05 15.00Q165.78 15.00 164.63 16.65Q163.47 18.31 163.47 22.01L163.47 22.01L163.47 22.69Q163.47 26.44 164.62 28.08Q165.76 29.72 168.10 29.72ZM180.97 22.42L180.97 22.12Q180.97 18.51 182.36 15.68Q183.75 12.85 186.37 11.30Q188.99 9.75 192.45 9.75L192.45 9.75Q197.36 9.75 200.48 12.76Q203.59 15.77 203.95 20.93L203.95 20.93L203.99 22.60Q203.99 28.19 200.87 31.57Q197.75 34.95 192.49 34.95Q187.23 34.95 184.10 31.58Q180.97 28.21 180.97 22.42L180.97 22.42ZM187.46 22.60L187.46 22.60Q187.46 26.05 188.76 27.89Q190.06 29.72 192.49 29.72L192.49 29.72Q194.85 29.72 196.17 27.91Q197.50 26.10 197.50 22.12L197.50 22.12Q197.50 18.73 196.17 16.87Q194.85 15.00 192.45 15.00L192.45 15.00Q190.06 15.00 188.76 16.86Q187.46 18.71 187.46 22.60ZM221.15 27.78L221.15 27.78Q221.15 26.59 219.97 25.91Q218.79 25.22 216.19 24.68L216.19 24.68Q207.52 22.87 207.52 17.32L207.52 17.32Q207.52 14.08 210.20 11.92Q212.88 9.75 217.22 9.75L217.22 9.75Q221.85 9.75 224.62 11.93Q227.39 14.11 227.39 17.59L227.39 17.59L220.90 17.59Q220.90 16.19 220.00 15.28Q219.11 14.38 217.20 14.38L217.20 14.38Q215.56 14.38 214.66 15.12Q213.76 15.86 213.76 17.00L213.76 17.00Q213.76 18.08 214.78 18.74Q215.80 19.41 218.23 19.89Q220.66 20.37 222.32 20.98L222.32 20.98Q227.46 22.87 227.46 27.51L227.46 27.51Q227.46 30.84 224.61 32.89Q221.76 34.95 217.24 34.95L217.24 34.95Q214.19 34.95 211.82 33.86Q209.45 32.77 208.10 30.87Q206.75 28.97 206.75 26.77L206.75 26.77L212.91 26.77Q213.00 28.50 214.19 29.42Q215.38 30.34 217.38 30.34L217.38 30.34Q219.24 30.34 220.20 29.64Q221.15 28.93 221.15 27.78Z"></path></g></svg><svg id="slogan" viewBox="0 0 54.130859375 18.916015625" width="54.130859375" height="18.916015625" x="55" y="42.95000457763672" data-v-04588dbe="" style="fill: rgb(48, 130, 240);"><rect x="0" y="0" width="100%" height="100%" fill="none" data-v-04588dbe=""></rect><g data-v-04588dbe=""><path xmlns="http://www.w3.org/2000/svg" d="M0 9.51L0 9.39Q0 6.96 1.16 5.48Q2.31 3.99 4.28 3.99L4.28 3.99Q6.02 3.99 6.98 5.19L6.98 5.19L7.10 4.19L9.66 4.19L9.66 14.40Q9.66 15.79 9.03 16.82Q8.40 17.84 7.26 18.38Q6.11 18.92 4.58 18.92L4.58 18.92Q3.42 18.92 2.31 18.45Q1.21 17.99 0.64 17.26L0.64 17.26L1.89 15.54Q2.95 16.72 4.45 16.72L4.45 16.72Q5.58 16.72 6.20 16.12Q6.83 15.52 6.83 14.41L6.83 14.41L6.83 13.85Q5.85 14.95 4.26 14.95L4.26 14.95Q2.35 14.95 1.18 13.46Q0 11.97 0 9.51L0 9.51ZM2.82 9.60L2.82 9.60Q2.82 11.04 3.40 11.85Q3.97 12.67 4.98 12.67L4.98 12.67Q6.27 12.67 6.83 11.70L6.83 11.70L6.83 7.26Q6.26 6.29 5 6.29L5 6.29Q3.98 6.29 3.40 7.12Q2.82 7.95 2.82 9.60ZM16.69 14.95L16.69 14.95Q14.37 14.95 12.91 13.53Q11.45 12.10 11.45 9.73L11.45 9.73L11.45 9.45Q11.45 7.86 12.06 6.61Q12.68 5.35 13.80 4.67Q14.93 3.99 16.38 3.99L16.38 3.99Q18.54 3.99 19.79 5.36Q21.04 6.73 21.04 9.24L21.04 9.24L21.04 10.39L14.31 10.39Q14.44 11.43 15.13 12.05Q15.82 12.68 16.88 12.68L16.88 12.68Q18.51 12.68 19.42 11.49L19.42 11.49L20.81 13.05Q20.18 13.95 19.09 14.45Q18.01 14.95 16.69 14.95ZM16.37 6.28L16.37 6.28Q15.53 6.28 15.00 6.85Q14.48 7.41 14.34 8.47L14.34 8.47L18.26 8.47L18.26 8.24Q18.24 7.30 17.75 6.79Q17.27 6.28 16.37 6.28ZM28.61 4.12L28.57 6.84Q28.00 6.76 27.56 6.76L27.56 6.76Q25.96 6.76 25.46 7.84L25.46 7.84L25.46 14.76L22.64 14.76L22.64 4.19L25.30 4.19L25.38 5.45Q26.23 3.99 27.73 3.99L27.73 3.99Q28.20 3.99 28.61 4.12L28.61 4.12ZM38.61 14.76L35.76 14.76Q35.57 14.38 35.48 13.81L35.48 13.81Q34.45 14.95 32.81 14.95L32.81 14.95Q31.26 14.95 30.24 14.05Q29.22 13.15 29.22 11.79L29.22 11.79Q29.22 10.11 30.46 9.21Q31.71 8.31 34.06 8.30L34.06 8.30L35.36 8.30L35.36 7.70Q35.36 6.96 34.99 6.52Q34.61 6.08 33.80 6.08L33.80 6.08Q33.09 6.08 32.68 6.43Q32.28 6.77 32.28 7.36L32.28 7.36L29.45 7.36Q29.45 6.45 30.02 5.66Q30.59 4.88 31.62 4.44Q32.66 3.99 33.95 3.99L33.95 3.99Q35.90 3.99 37.05 4.98Q38.19 5.96 38.19 7.73L38.19 7.73L38.19 12.31Q38.20 13.82 38.61 14.59L38.61 14.59L38.61 14.76ZM33.43 12.79L33.43 12.79Q34.05 12.79 34.58 12.51Q35.11 12.24 35.36 11.77L35.36 11.77L35.36 9.95L34.31 9.95Q32.19 9.95 32.05 11.42L32.05 11.42L32.04 11.58Q32.04 12.11 32.41 12.45Q32.78 12.79 33.43 12.79ZM43.34 4.19L43.34 14.76L40.51 14.76L40.51 4.19L43.34 4.19ZM40.34 1.46L40.34 1.46Q40.34 0.82 40.77 0.41Q41.19 0 41.92 0L41.92 0Q42.65 0 43.08 0.41Q43.51 0.82 43.51 1.46L43.51 1.46Q43.51 2.10 43.07 2.51Q42.64 2.92 41.92 2.92Q41.21 2.92 40.78 2.51Q40.34 2.10 40.34 1.46ZM51.39 11.84L51.39 11.84Q51.39 11.32 50.87 11.02Q50.36 10.72 49.23 10.49L49.23 10.49Q45.46 9.70 45.46 7.29L45.46 7.29Q45.46 5.88 46.63 4.94Q47.79 3.99 49.68 3.99L49.68 3.99Q51.69 3.99 52.90 4.94Q54.10 5.89 54.10 7.40L54.10 7.40L51.28 7.40Q51.28 6.80 50.89 6.40Q50.50 6.01 49.67 6.01L49.67 6.01Q48.96 6.01 48.56 6.33Q48.17 6.65 48.17 7.15L48.17 7.15Q48.17 7.62 48.62 7.91Q49.06 8.19 50.12 8.40Q51.17 8.61 51.89 8.88L51.89 8.88Q54.13 9.70 54.13 11.72L54.13 11.72Q54.13 13.16 52.89 14.06Q51.65 14.95 49.69 14.95L49.69 14.95Q48.36 14.95 47.33 14.48Q46.30 14.00 45.71 13.18Q45.13 12.35 45.13 11.40L45.13 11.40L47.80 11.40Q47.84 12.15 48.36 12.55Q48.88 12.95 49.75 12.95L49.75 12.95Q50.56 12.95 50.97 12.64Q51.39 12.33 51.39 11.84Z"></path></g></svg></svg>